<?xml version="1.0" encoding="utf-8"?>
<svg width="632px" height="549px" viewBox="0 0 632 549" version="1.1" xmlns:xlink="http://www.w3.org/1999/xlink" xmlns="http://www.w3.org/2000/svg">
  <defs>
    <linearGradient gradientUnits="objectBoundingBox" x1="0.5" y1="0" x2="0.5" y2="1" id="gradient_1">
      <stop offset="0%" stop-color="#452277" />
      <stop offset="100%" stop-color="#9061D1" />
    </linearGradient>
    <path d="M632 0L632 0L632 549L0 549L0 0L632 0Z" id="path_1" />
    <clipPath id="clip_1">
      <use xlink:href="#path_1" />
    </clipPath>
  </defs>
  <g id="ccchaos (1)" clip-path="url(#clip_1)">
    <path d="M632 0L632 0L632 549L0 549L0 0L632 0Z" id="ccchaos-(1)" fill="none" stroke="none" />
    <g id="Group" transform="translate(84.4352 43.741577)">
      <path d="M214.477 0C218.675 1.56922 222.922 3.17047 227.22 4.80375C231.628 6.5148 236.091 8.27618 240.61 10.0879C245.255 12.0094 249.964 13.9949 254.735 16.0445C259.633 18.2314 264.6 20.4914 269.635 22.8247C274.807 25.3043 280.044 27.8617 285.348 30.4969C290.783 33.2831 296.284 36.1402 301.851 39.0682C307.539 42.1289 313.288 45.249 319.097 48.4287C325.017 51.7135 330.986 55.0395 337.006 58.4067C343.121 61.838 349.272 65.2898 355.46 68.7622C361.723 72.2438 368.011 75.7185 374.326 79.1864C380.677 82.6131 387.039 86.0077 393.412 89.3703C399.795 92.6414 406.173 95.8554 412.546 99.0121C418.892 102.032 425.217 104.973 431.522 107.837C437.763 110.527 443.967 113.128 450.134 115.64C456.201 117.964 462.216 120.19 468.178 122.317C474.013 124.257 479.778 126.101 485.471 127.848C486.477 132.716 487.125 137.582 487.414 142.445C486.977 147.308 486.187 152.171 485.044 157.035C483.227 161.902 481.11 166.768 478.693 171.631C475.759 176.494 472.623 181.358 469.284 186.221C465.66 191.089 461.958 195.954 458.176 200.817C454.379 205.681 450.645 210.544 446.974 215.407C443.556 220.275 440.328 225.14 437.289 230.004C434.74 234.867 432.483 239.732 430.518 244.6C429.207 249.463 428.248 254.327 427.643 259.19C427.764 264.053 428.243 268.918 429.081 273.786C430.608 278.65 432.454 283.513 434.618 288.376C437.336 293.239 440.283 298.105 443.459 302.973C446.977 307.836 450.6 312.699 454.329 317.562C458.132 322.43 461.905 327.296 465.65 332.159C469.199 337.022 472.583 341.885 475.801 346.748C478.577 351.616 481.078 356.482 483.306 361.345C479.256 364.923 475.114 368.361 470.879 371.659C466.461 374.656 461.95 377.49 457.347 380.162C452.57 382.5 447.706 384.668 442.755 386.668C437.636 388.333 432.441 389.84 427.169 391.19C421.744 392.233 416.251 393.139 410.689 393.907C405.007 394.434 399.269 394.861 393.475 395.191C387.577 395.36 381.638 395.477 375.661 395.541C369.615 395.545 363.542 395.552 357.443 395.561C351.308 395.616 345.159 395.726 338.997 395.891C332.83 396.216 326.668 396.646 320.511 397.181C314.37 397.963 308.247 398.892 302.143 399.967C296.092 401.367 290.067 402.943 284.068 404.695C278.148 406.814 272.268 409.122 266.427 411.62C260.676 414.493 254.975 417.553 249.324 420.802C243.773 424.402 238.277 428.167 232.837 432.097C227.512 436.325 222.245 440.68 217.037 445.163C209.463 445.356 201.945 445.621 194.482 445.96C187.093 445.964 179.685 445.706 172.259 445.184C164.691 443.35 157.049 441.023 149.334 438.205C145.373 436.178 141.378 433.966 137.349 431.569C133.247 428.81 129.107 425.88 124.931 422.778C120.67 419.347 116.372 415.765 112.038 412.031C107.619 408.033 103.161 403.924 98.6631 399.706C94.0811 395.31 89.4649 390.847 84.8144 386.318C80.0902 381.711 75.3318 377.09 70.5391 372.455C65.6832 367.844 60.7984 363.273 55.8846 358.744C50.9234 354.338 45.9385 350.017 40.9299 345.781C35.8897 341.759 30.8363 337.861 25.7698 334.087C20.6769 330.592 15.5788 327.245 10.4754 324.047C10.0593 319.491 9.58797 314.934 9.0613 310.377C8.45563 305.82 7.821 301.264 7.1574 296.707C6.45167 292.155 5.74067 287.6 5.0244 283.044C4.32393 278.487 3.64191 273.93 2.9783 269.374C2.38317 264.817 1.82753 260.26 1.3114 255.704C0.905867 251.147 0.558265 246.593 0.268603 242.04C0.1106 237.484 0.0210651 232.927 0 228.37C0.115867 223.814 0.29757 219.257 0.545102 214.7C0.913769 210.143 1.33774 205.589 1.817 201.037C2.39107 196.48 2.99937 191.924 3.6419 187.367C4.33184 182.81 5.03494 178.253 5.7512 173.697C6.46221 169.145 7.1574 164.59 7.8368 160.033C8.4688 155.477 9.05867 150.92 9.6064 146.363C10.0646 141.807 10.4649 137.25 10.8072 132.693C11.0231 128.141 11.1706 123.587 11.2496 119.03C13.4985 111.33 18.141 105.12 25.1773 100.398C29.8541 98.9572 34.5019 97.5733 39.1208 96.2466C43.6712 95.0022 48.1874 93.7875 52.6693 92.6026C61.4067 90.2785 70.044 87.9132 78.5813 85.5067C86.8131 82.716 94.9712 79.7445 103.056 76.5924C110.94 72.7036 118.79 68.5724 126.605 64.1987C130.497 61.7236 134.39 59.1731 138.282 56.547C142.195 53.7745 146.118 50.9358 150.053 48.0306C154.024 45.0111 158.018 41.9436 162.037 38.828C166.113 35.6301 170.224 32.407 174.369 29.1588C178.582 25.8739 182.843 22.5845 187.151 19.2905C191.543 16.0056 195.988 12.7368 200.486 9.48397C207.454 4.7214 212.118 1.56008 214.477 0" id="Shape" fill="none" stroke="url(#gradient_1)" stroke-width="2" stroke-linecap="round" stroke-dasharray="2 23" />
      <path d="M213.806 8.55754C218.087 10.0398 222.424 11.5542 226.817 13.1005C231.315 14.7155 235.87 16.3785 240.484 18.0896C245.208 19.9012 249.996 21.7747 254.846 23.7099C259.813 25.7733 264.84 27.9075 269.927 30.1127C275.131 32.4596 280.395 34.8775 285.719 37.3663C291.149 40.0015 296.634 42.7053 302.175 45.4778C307.81 48.3829 313.496 51.3475 319.231 54.3716C325.046 57.5055 330.897 60.6828 336.785 63.9036C342.736 67.1976 348.714 70.5168 354.718 73.8611C360.759 77.2374 366.815 80.6138 372.888 83.9901C378.966 87.3482 385.046 90.6857 391.129 94.0025C397.191 97.2508 403.237 100.453 409.267 103.61C415.256 106.657 421.212 109.638 427.137 112.552C432.988 115.32 438.795 118.008 444.557 120.615C450.213 123.049 455.812 125.394 461.352 127.649C466.766 129.717 472.109 131.698 477.381 133.592C477.934 138.282 478.155 142.973 478.045 147.667C477.281 152.361 476.199 157.055 474.798 161.749C472.823 166.443 470.587 171.137 468.091 175.831C465.163 180.525 462.066 185.219 458.8 189.913C455.314 194.607 451.772 199.301 448.175 203.995C444.599 208.689 441.089 213.38 437.644 218.07C434.447 222.764 431.43 227.458 428.591 232.152C426.21 236.845 424.096 241.539 422.247 246.233C420.999 250.927 420.067 255.621 419.451 260.315C419.498 265.009 419.872 269.703 420.572 274.397C421.91 279.091 423.543 283.785 425.47 288.479C427.919 293.173 430.59 297.867 433.481 302.561C436.72 307.255 440.075 311.949 443.546 316.643C447.132 321.337 450.719 326.028 454.305 330.718C457.771 335.412 461.115 340.105 464.338 344.799C466.571 353.391 465.431 361.045 460.918 367.761C456.878 370.287 452.757 372.659 448.554 374.878C444.188 376.79 439.74 378.549 435.211 380.155C430.529 381.468 425.768 382.644 420.928 383.682C415.951 384.469 410.903 385.144 405.784 385.707C400.538 386.082 395.234 386.379 389.873 386.599C384.401 386.713 378.881 386.793 373.314 386.839C367.663 386.871 361.978 386.919 356.258 386.983C350.481 387.12 344.682 387.322 338.863 387.587C333.006 388.022 327.142 388.562 321.269 389.207C315.397 390.099 309.525 391.13 303.652 392.302C297.806 393.779 291.973 395.42 286.154 397.222C280.382 399.363 274.636 401.678 268.916 404.167C263.26 406.999 257.637 410 252.049 413.171C246.546 416.661 241.084 420.301 235.665 424.089C230.335 428.142 225.055 432.312 219.825 436.599C212.784 436.723 205.758 436.917 198.748 437.182C191.696 437.178 184.597 436.949 177.45 436.496C170.082 434.899 162.624 432.868 155.077 430.402C151.185 428.609 147.259 426.651 143.298 424.528C139.259 422.071 135.18 419.452 131.061 416.67C126.863 413.578 122.629 410.339 118.358 406.953C114.008 403.307 109.62 399.546 105.196 395.671C100.693 391.595 96.1588 387.445 91.5926 383.223C86.9632 378.881 82.3022 374.509 77.6096 370.108C72.8591 365.684 68.0875 361.272 63.2948 356.871C58.4547 352.543 53.5989 348.272 48.7272 344.058C43.8292 339.996 38.918 336.029 33.9937 332.159C29.0588 328.508 24.1187 324.981 19.1733 321.577C18.6677 317.185 18.1173 312.79 17.5222 308.394C16.8586 303.997 16.1687 299.603 15.4524 295.211C14.7098 290.814 13.9646 286.42 13.2167 282.028C12.5004 277.632 11.8079 273.235 11.139 268.838C10.5386 264.446 9.98561 260.052 9.48001 255.656C9.07974 251.264 8.74004 246.869 8.46091 242.473C8.3187 238.076 8.24234 233.682 8.23181 229.29C8.35821 224.893 8.55044 220.499 8.80851 216.107C9.19298 211.71 9.63274 207.316 10.1278 202.924C10.7124 198.528 11.3365 194.131 12.0001 189.734C12.7111 185.342 13.4379 180.948 14.1805 176.552C14.9231 172.16 15.6552 167.765 16.3767 163.369C17.0561 158.977 17.6986 154.582 18.3043 150.186C18.8204 145.789 19.2839 141.395 19.6947 137.003C19.9844 132.606 20.2082 128.212 20.3662 123.82C22.6519 116.496 27.2287 110.697 34.0964 106.424C38.6415 105.184 43.1603 103.983 47.6528 102.821C56.4113 100.634 65.0749 98.4471 73.6438 96.2603C81.8861 93.8401 90.0363 91.2827 98.0943 88.588C105.873 85.2666 113.581 81.7255 121.218 77.9649C124.967 75.81 128.704 73.5797 132.428 71.2739C136.135 68.8126 139.835 66.2826 143.527 63.684C147.219 60.9481 150.914 58.1505 154.611 55.2912C158.329 52.3311 162.061 49.3276 165.805 46.2807C169.581 43.1651 173.381 40.0244 177.205 36.8585C181.081 33.6697 184.992 30.4741 188.936 27.2716C192.95 24.0874 197.005 20.9192 201.102 17.767C207.428 13.1463 211.662 10.0764 213.806 8.55754" id="Shape" fill="none" stroke="url(#gradient_1)" stroke-width="2" stroke-linecap="round" stroke-dasharray="2 12" />
      <path d="M214.114 17.1151C218.474 18.515 222.888 19.9424 227.354 21.3973C231.926 22.9207 236.55 24.4877 241.226 26.0981C246.009 27.8091 250.843 29.5751 255.731 31.3959C260.724 33.3403 265.767 35.3487 270.859 37.4212C276.052 39.6264 281.293 41.9024 286.58 44.2494C291.958 46.7336 297.374 49.2842 302.831 51.9011C308.366 54.6461 313.935 57.4506 319.539 60.3145C325.196 63.2883 330.876 66.3101 336.579 69.3799C342.325 72.5275 348.082 75.7071 353.849 78.9188C359.637 82.167 365.422 85.4267 371.205 88.6978C376.983 91.9735 382.75 95.2355 388.506 98.4837C394.221 101.686 399.914 104.857 405.586 107.995C411.195 111.047 416.767 114.046 422.302 116.992C427.753 119.81 433.157 122.562 438.513 125.247C443.759 127.777 448.944 130.227 454.068 132.597C461.573 138.074 466.342 144.705 468.375 152.492C467.327 157.007 466.003 161.525 464.401 166.045C462.295 170.561 459.972 175.076 457.434 179.592C454.532 184.107 451.498 188.623 448.333 193.138C444.994 197.658 441.623 202.176 438.221 206.692C434.855 211.207 431.561 215.723 428.338 220.238C425.362 224.754 422.555 229.272 419.917 233.792C417.694 238.307 415.714 242.823 413.976 247.338C412.786 251.854 411.882 256.369 411.266 260.885C411.245 265.405 411.524 269.923 412.104 274.438C413.262 278.954 414.692 283.469 416.393 287.985C418.589 292.5 420.994 297.018 423.606 301.538C426.566 306.054 429.649 310.569 432.857 315.085C436.217 319.6 439.598 324.116 443 328.631C446.345 333.147 449.607 337.665 452.789 342.185C455.29 350.273 454.561 357.282 450.6 363.212C443.006 366.954 435.19 370.287 427.153 373.21C418.395 374.898 409.428 376.282 400.254 377.362C395.44 377.623 390.568 377.829 385.639 377.98C380.593 378.067 375.498 378.14 370.352 378.199C365.112 378.277 359.832 378.382 354.513 378.515C349.119 378.744 343.697 379.043 338.246 379.414C332.737 379.958 327.213 380.606 321.672 381.356C316.105 382.349 310.528 383.472 304.94 384.725C299.352 386.267 293.764 387.96 288.176 389.804C282.615 391.959 277.064 394.271 271.523 396.742C266.019 399.523 260.539 402.458 255.083 405.546C249.679 408.918 244.305 412.427 238.959 416.073C233.687 419.958 228.452 423.947 223.254 428.042C216.623 428.096 209.977 428.222 203.314 428.419C196.505 428.401 189.626 428.195 182.68 427.801C175.454 426.415 168.128 424.647 160.702 422.497C152.912 418.905 145.012 414.859 137.002 410.357C132.862 407.594 128.686 404.689 124.472 401.642C120.191 398.343 115.875 394.925 111.524 391.389C107.106 387.651 102.655 383.829 98.1733 379.922C93.6387 375.877 89.0778 371.785 84.4905 367.645C79.8558 363.445 75.2027 359.236 70.5312 355.018C65.8228 350.822 61.1012 346.659 56.3665 342.528C51.6107 338.493 46.847 334.524 42.0754 330.622C37.2985 326.884 32.519 323.244 27.7369 319.703C27.1523 315.467 26.5308 311.23 25.8725 306.994C25.151 302.757 24.411 298.521 23.6526 294.285C22.8837 290.048 22.1174 285.812 21.3537 281.575C20.6269 277.339 19.9291 273.102 19.2602 268.866C18.6703 264.625 18.1252 260.386 17.6249 256.15C17.2404 251.913 16.9165 247.677 16.6532 243.44C16.5215 239.204 16.4583 234.967 16.4636 230.731C16.6058 226.495 16.8112 222.256 17.0798 218.015C17.4748 213.778 17.9225 209.542 18.4228 205.305C19.0232 201.069 19.6605 196.833 20.3346 192.596C21.0614 188.36 21.8066 184.123 22.5703 179.887C23.3392 175.646 24.1029 171.407 24.8613 167.171C25.5776 162.934 26.2649 158.698 26.9232 154.461C27.4973 150.225 28.0239 145.988 28.5032 141.752C28.8613 137.515 29.1615 133.277 29.4038 129.036C31.7475 122.063 36.2689 116.635 42.9681 112.751C51.716 110.656 60.3823 108.594 68.967 106.568C77.2515 104.431 85.4411 102.194 93.536 99.8562C101.315 97.0197 109.009 93.9888 116.62 90.7634C123.962 86.8198 131.243 82.6565 138.463 78.2737C142.008 75.8306 145.542 73.3235 149.065 70.7524C152.573 68.0577 156.075 65.3081 159.572 62.5037C163.069 59.6077 166.572 56.6728 170.079 53.6991C173.597 50.6658 177.131 47.612 180.681 44.5376C184.257 41.4404 187.857 38.3408 191.48 35.2389C195.156 32.1554 198.861 29.0878 202.595 26.0363C208.331 21.562 212.17 18.5882 214.114 17.1151" id="Shape" fill="none" stroke="url(#gradient_1)" stroke-width="2" stroke-linecap="round" stroke-dasharray="0 7" />
      <path d="M215.378 25.6863C219.802 26.9994 224.27 28.3398 228.784 29.7078C233.392 31.1397 238.048 32.6129 242.751 34.1272C247.544 35.733 252.381 37.3915 257.263 39.1025C262.235 40.9234 267.246 42.8083 272.297 44.7572C277.427 46.8251 282.594 48.9616 287.797 51.1668C293.064 53.4955 298.362 55.8905 303.692 58.3518C309.069 60.9367 314.467 63.5788 319.887 66.278C325.338 69.0916 330.802 71.9533 336.279 74.863C341.772 77.8551 347.268 80.8814 352.767 83.9421C358.254 87.0577 363.734 90.1915 369.206 93.3437C374.647 96.5096 380.069 99.6732 385.473 102.835C390.829 105.973 396.153 109.091 401.446 112.188C406.671 115.217 411.853 118.209 416.994 121.164C422.044 124.015 427.045 126.808 431.996 129.543C436.836 132.151 441.618 134.69 446.342 137.161C453.057 142.724 457.086 149.296 458.429 156.877C457.139 161.209 455.611 165.542 453.847 169.874C451.656 174.207 449.286 178.539 446.737 182.872C443.888 187.204 440.936 191.537 437.881 195.869C434.705 200.202 431.514 204.535 428.306 208.867C425.157 213.2 422.081 217.534 419.079 221.871C416.314 226.204 413.705 230.536 411.25 234.869C409.18 239.202 407.335 243.534 405.712 247.867C404.575 252.199 403.698 256.532 403.082 260.864C403.003 265.197 403.195 269.529 403.658 273.862C404.654 278.194 405.897 282.527 407.387 286.859C409.336 291.192 411.485 295.524 413.834 299.857C416.52 304.189 419.332 308.522 422.271 312.855C425.389 317.187 428.549 321.52 431.751 325.852C434.948 330.185 438.094 334.517 441.191 338.85C443.867 346.44 443.464 352.824 439.983 358.003C433.052 360.977 425.926 363.598 418.605 365.867C410.631 367.116 402.468 368.13 394.115 368.907C385.157 369.196 376.032 369.438 366.742 369.635C361.917 369.772 357.051 369.948 352.142 370.163C347.15 370.488 342.12 370.886 337.053 371.357C331.924 372.007 326.768 372.76 321.585 373.615C316.361 374.695 311.118 375.9 305.856 377.232C300.569 378.828 295.273 380.562 289.969 382.433C284.661 384.593 279.355 386.894 274.051 389.337C268.763 392.059 263.483 394.921 258.211 397.922C252.971 401.175 247.749 404.551 242.546 408.051C237.39 411.761 232.257 415.57 227.149 419.477C220.813 419.468 214.432 419.527 208.007 419.656C201.36 419.628 194.632 419.438 187.822 419.086C180.691 417.892 173.455 416.362 166.113 414.495C158.413 411.352 150.606 407.799 142.69 403.838C138.608 401.381 134.492 398.794 130.342 396.076C126.123 393.111 121.879 390.032 117.607 386.839C113.273 383.44 108.912 379.951 104.525 376.374C100.096 372.641 95.6427 368.848 91.166 364.996C86.6525 361.057 82.1231 357.09 77.578 353.096C73.0065 349.084 68.4245 345.079 63.832 341.08C59.2237 337.136 54.6127 333.232 49.9991 329.366C45.3802 325.614 40.7614 321.934 36.1425 318.324C35.4947 314.243 34.81 310.162 34.0885 306.081C33.3248 302 32.5506 297.919 31.7659 293.839C30.9759 289.758 30.1964 285.677 29.4275 281.596C28.7007 277.51 28.0055 273.427 27.3419 269.346C26.7626 265.265 26.2333 261.184 25.754 257.104C25.3853 253.023 25.0799 248.942 24.8376 244.861C24.7217 240.775 24.6743 236.692 24.6954 232.611C24.8429 228.53 25.0588 224.449 25.3432 220.369C25.7435 216.288 26.199 212.204 26.7099 208.119C27.3156 204.038 27.9581 199.957 28.6375 195.876C29.3748 191.795 30.1332 187.715 30.9127 183.634C31.7027 179.548 32.4901 175.465 33.2748 171.384C34.0279 167.303 34.7547 163.222 35.4552 159.141C36.0872 155.06 36.6718 150.977 37.209 146.892C37.6461 142.811 38.0227 138.73 38.3387 134.649C40.7403 128.002 45.2117 122.898 51.7529 119.339C60.2533 117.454 68.6773 115.562 77.025 113.664C85.0935 111.55 93.0725 109.317 100.962 106.966C108.546 104.074 116.043 100.991 123.453 97.7151C130.584 93.7532 137.642 89.5831 144.625 85.2048C151.414 80.1906 158.158 75.014 164.857 69.675C168.17 66.8476 171.48 63.9859 174.787 61.09C178.09 58.1437 181.397 55.1791 184.71 52.1962C188.033 49.1995 191.37 46.2006 194.719 43.1994C198.095 40.2211 201.492 37.2565 204.91 34.3056C210.129 29.9777 213.619 27.1046 215.378 25.6863" id="Shape" fill="none" stroke="url(#gradient_1)" stroke-width="2" stroke-linecap="round" stroke-dasharray="16 14" />
      <path d="M217.534 34.2439C226.509 36.7601 235.639 39.3999 244.924 42.1632C254.509 45.2696 264.229 48.5842 274.083 52.107C284.163 56.1055 294.328 60.3465 304.577 64.83C314.941 69.7847 325.333 74.9568 335.75 80.3461C346.141 86.0832 356.487 91.9415 366.789 97.921C376.917 104.019 386.924 110.111 396.809 116.196C406.389 122.111 415.782 127.88 424.988 133.503C433.768 138.709 442.316 143.657 450.632 148.347C449.025 156.632 446.542 164.92 443.182 173.209C438.405 181.495 433.167 189.782 427.469 198.072C421.449 206.358 415.577 214.645 409.852 222.935C405.017 231.22 400.88 239.508 397.441 247.798C395.75 256.083 395.021 264.371 395.253 272.661C397.38 280.946 400.351 289.234 404.164 297.524C409.262 305.809 414.737 314.097 420.588 322.386C426.587 330.672 432.349 338.959 437.873 347.249C432.027 350.534 425.968 353.38 419.695 355.786C412.98 357.401 406.031 358.689 398.847 359.65C391.2 360.148 383.329 360.528 375.234 360.789C366.713 361.05 357.996 361.436 349.085 361.949C339.837 362.946 330.444 364.293 320.906 365.991C311.136 368.548 301.288 371.593 291.36 375.125C281.332 379.682 271.289 384.741 261.229 390.305C251.202 396.787 241.219 403.659 231.28 410.92C225.166 410.828 218.959 410.828 212.66 410.92C206.145 410.915 199.504 410.734 192.736 410.377C185.705 409.44 178.535 408.117 171.225 406.411C163.641 403.803 155.922 400.706 148.07 397.119C139.964 392.549 131.746 387.516 123.414 382.022C114.892 375.713 106.292 369.083 97.6124 362.134C88.8171 354.745 79.9849 347.252 71.1158 339.653C62.2151 332.085 53.3171 324.651 44.4217 317.349C42.9418 309.494 41.4013 301.639 39.8002 293.784C38.236 285.924 36.7719 278.066 35.4078 270.211C34.3861 262.356 33.5908 254.5 33.022 246.645C32.9588 238.79 33.1537 230.935 33.6066 223.079C34.5283 215.224 35.6343 207.369 36.9246 199.513C38.4572 191.654 40.0293 183.796 41.6409 175.941C43.163 168.085 44.5613 160.23 45.8358 152.375C46.7364 144.52 47.4 136.664 47.8266 128.809C56.2427 127.025 64.5851 125.263 72.8538 123.525C80.9381 121.686 88.925 119.725 96.8145 117.644C104.477 115.205 112.025 112.543 119.456 109.656C126.655 106.266 133.742 102.61 140.715 98.6896C147.477 94.261 154.145 89.6014 160.718 84.7107C167.143 79.4311 173.513 74.0075 179.828 68.4397C186.074 62.7027 192.315 56.9381 198.551 51.1462C208.02 42.6504 214.348 37.0163 217.534 34.2439" id="Shape" fill="none" stroke="url(#gradient_1)" stroke-width="2" stroke-linecap="round" stroke-dasharray="0 27" />
      <path d="M220.473 42.8014C229.384 45.153 238.422 47.6212 247.586 50.206C256.976 53.1066 266.462 56.1993 276.042 59.4841C285.764 63.2036 295.534 67.1541 305.351 71.3357C315.205 75.961 325.046 80.7968 334.873 85.843C344.616 91.2461 354.286 96.7841 363.882 102.457C373.272 108.295 382.529 114.158 391.65 120.046C400.451 125.847 409.07 131.547 417.507 137.147C425.533 142.422 433.344 147.487 440.938 152.341C438.842 160.237 435.998 168.136 432.406 176.037C427.656 183.938 422.553 191.839 417.096 199.74C411.45 207.641 405.973 215.542 400.664 223.443C396.198 231.339 392.367 239.238 389.17 247.139C387.542 255.04 386.776 262.941 386.871 270.842C388.677 278.739 391.255 286.637 394.605 294.539C399.176 302.44 404.146 310.341 409.512 318.242C415.169 326.138 420.699 334.037 426.102 341.938C420.714 344.5 415.153 346.689 409.417 348.505C403.303 349.686 396.988 350.623 390.473 351.319C383.548 351.699 376.417 352.023 369.08 352.293C361.354 352.668 353.438 353.199 345.333 353.885C336.885 355.08 328.287 356.612 319.539 358.483C310.533 361.164 301.422 364.291 292.205 367.864C282.836 372.357 273.416 377.298 263.947 382.687C254.435 388.9 244.929 395.456 235.428 402.355C229.424 402.218 223.312 402.163 217.092 402.191C210.625 402.159 204.031 401.982 197.31 401.662C190.327 400.857 183.212 399.72 175.965 398.251C168.46 396.005 160.836 393.324 153.094 390.209C145.131 386.206 137.076 381.772 128.928 376.909C120.622 371.268 112.254 365.298 103.822 358.998C95.3109 352.2 86.7736 345.246 78.21 338.136C69.6411 330.921 61.0854 323.755 52.5429 316.636C50.984 309.087 49.3882 301.538 47.7555 293.99C46.2018 286.441 44.7667 278.892 43.45 271.343C42.4809 263.799 41.7357 256.253 41.2143 248.704C41.188 241.155 41.4092 233.606 41.8779 226.058C42.7996 218.509 43.9056 210.96 45.1959 203.411C46.7285 195.863 48.3111 188.314 49.9438 180.765C51.5185 173.216 52.9932 165.668 54.3678 158.119C55.4001 150.57 56.219 143.021 56.8247 135.473C64.9564 133.871 73.025 132.243 81.0303 130.587C88.8829 128.752 96.6433 126.773 104.312 124.65C111.78 122.143 119.143 119.412 126.4 116.457C133.431 113.016 140.351 109.331 147.161 105.401C153.755 101.005 160.249 96.3998 166.643 91.5869C172.857 86.4355 179.001 81.1582 185.073 75.7551C191.03 70.2102 196.952 64.6493 202.84 59.0724C211.646 50.8923 217.524 45.4686 220.473 42.8014" id="Shape" fill="none" stroke="url(#gradient_1)" stroke-width="2" stroke-linecap="round" stroke-dasharray="24 14" />
      <path d="M224.012 51.3589C232.766 53.5549 241.614 55.8585 250.556 58.2695C259.647 60.9641 268.795 63.8373 278.001 66.8888C287.281 70.3429 296.569 74.0075 305.864 77.8825C315.134 82.1784 324.363 86.6779 333.554 91.381C342.612 96.4364 351.576 101.636 360.445 106.98C369.088 112.524 377.591 118.12 385.955 123.765C393.997 129.406 401.862 134.983 409.552 140.496C416.867 145.78 423.982 150.902 430.898 155.861C428.406 163.364 425.291 170.869 421.552 178.377C416.886 185.88 411.959 193.383 406.771 200.886C401.499 208.394 396.411 215.899 391.508 223.402C387.4 230.905 383.866 238.408 380.906 245.911C379.342 253.418 378.544 260.924 378.513 268.427C380.019 275.93 382.228 283.435 385.141 290.943C389.212 298.446 393.686 305.949 398.563 313.452C403.83 320.955 409.065 328.46 414.268 335.967C409.281 337.903 404.156 339.538 398.895 340.874C393.323 341.725 387.579 342.404 381.665 342.912C375.403 343.242 368.959 343.571 362.334 343.9C355.35 344.413 348.195 345.104 340.869 345.973C333.206 347.359 325.396 349.068 317.438 351.099C309.201 353.876 300.848 357.058 292.379 360.645C283.721 365.06 274.988 369.87 266.183 375.077C257.271 381.011 248.334 387.251 239.37 393.798C233.408 393.61 227.33 393.505 221.137 393.482C214.701 393.418 208.136 393.24 201.442 392.947C194.506 392.251 187.446 391.277 180.262 390.023C172.857 388.093 165.347 385.787 157.731 383.106C149.942 379.633 142.074 375.768 134.126 371.508C126.058 366.512 117.944 361.192 109.786 355.546C101.576 349.37 93.3543 343.004 85.1225 336.448C76.9012 329.672 68.701 322.876 60.5219 316.059C58.905 308.822 57.2776 301.584 55.6397 294.346C54.1229 287.109 52.7325 279.869 51.4685 272.627C50.5626 265.389 49.8753 258.151 49.4066 250.914C49.4119 243.676 49.6594 236.436 50.1492 229.194C51.0709 221.956 52.169 214.718 53.4435 207.481C54.9708 200.239 56.5535 192.999 58.1914 185.761C59.803 178.523 61.3356 171.283 62.7892 164.041C63.9531 156.804 64.9222 149.566 65.6964 142.328C73.5385 140.828 81.3279 139.263 89.0646 137.634C96.6697 135.763 104.198 133.732 111.651 131.54C118.919 128.956 126.092 126.151 133.17 123.127C140.043 119.645 146.808 115.937 153.465 112.003C159.912 107.652 166.258 103.118 172.504 98.4014C178.556 93.3872 184.523 88.2655 190.406 83.0362C196.141 77.6972 201.819 72.3468 207.438 66.9849C215.733 59.1342 221.258 53.9255 224.012 51.3589" id="Shape" fill="none" stroke="url(#gradient_1)" stroke-width="2" stroke-linecap="round" stroke-dasharray="5 23" />
      <path d="M227.97 59.9233C236.465 61.9638 245.019 64.1026 253.63 66.3398C262.33 68.8423 271.052 71.505 279.794 74.3277C288.542 77.5119 297.274 80.8929 305.991 84.4705C314.623 88.4416 323.194 92.6049 331.705 96.9603C340.053 101.659 348.295 106.508 356.432 111.509C364.327 116.733 372.085 122.029 379.706 127.395C387.021 132.817 394.17 138.215 401.154 143.591C407.795 148.825 414.26 153.937 420.549 158.929C417.752 166.029 414.45 173.132 410.642 180.237C406.107 187.342 401.388 194.444 396.485 201.545C391.592 208.65 386.895 215.752 382.392 222.853C378.626 229.958 375.374 237.06 372.635 244.161C371.139 251.266 370.323 258.369 370.186 265.469C371.419 272.574 373.288 279.677 375.795 286.777C379.376 293.882 383.361 300.985 387.748 308.085C392.593 315.19 397.481 322.293 402.41 329.393C397.781 330.816 393.043 332.01 388.198 332.975C383.1 333.588 377.868 334.099 372.501 334.506C366.834 334.844 361.014 335.229 355.042 335.659C348.753 336.327 342.31 337.184 335.711 338.232C328.806 339.792 321.756 341.656 314.562 343.825C307.099 346.68 299.513 349.896 291.802 353.474C283.881 357.788 275.871 362.452 267.771 367.466C259.523 373.121 251.225 379.046 242.878 385.24C236.921 385.011 230.849 384.858 224.66 384.78C218.235 384.689 211.694 384.508 205.037 384.238C198.153 383.634 191.164 382.797 184.07 381.727C176.786 380.084 169.418 378.117 161.966 375.825C154.366 372.837 146.711 369.498 139 365.806C131.195 361.432 123.364 356.745 115.506 351.744C107.622 346.209 99.7349 340.458 91.8454 334.492C83.9928 328.238 76.1639 321.904 68.3587 315.49C66.7102 308.563 65.0776 301.639 63.4607 294.717C61.9966 287.79 60.6667 280.864 59.4712 273.937C58.6338 267.015 58.0097 260.091 57.5989 253.164C57.6463 246.238 57.9175 239.314 58.4126 232.392C59.329 225.465 60.4166 218.539 61.6753 211.612C63.1763 204.69 64.7458 197.766 66.3837 190.839C68.0216 183.913 69.5964 176.986 71.1079 170.06C72.3824 163.138 73.4858 156.213 74.418 149.287C81.9651 147.823 89.4675 146.26 96.9251 144.6C104.277 142.665 111.564 140.558 118.784 138.279C125.852 135.608 132.833 132.728 139.727 129.639C146.437 126.13 153.049 122.416 159.564 118.495C165.879 114.203 172.094 109.752 178.208 105.14C184.128 100.277 189.956 95.327 195.691 90.2899C201.263 85.1568 206.761 80.019 212.186 74.8767C220.102 67.36 225.363 62.3755 227.97 59.9233" id="Shape" fill="none" stroke="url(#gradient_1)" stroke-width="2" stroke-linecap="round" stroke-dasharray="27 19" />
      <path d="M232.126 68.4809C240.257 70.3749 248.418 72.3559 256.608 74.4238C264.824 76.7342 273.034 79.1887 281.24 81.7873C289.403 84.7153 297.525 87.8217 305.604 91.1065C313.562 94.7528 321.448 98.5798 329.264 102.587C336.89 106.929 344.408 111.42 351.819 116.059C358.987 120.94 366.023 125.909 372.927 130.964C379.548 136.125 386.018 141.294 392.338 146.473C398.352 151.583 404.209 156.618 409.907 161.578C406.905 168.275 403.5 174.973 399.693 181.671C395.337 188.364 390.86 195.06 386.263 201.757C381.749 208.455 377.43 215.153 373.307 221.851C369.867 228.549 366.887 235.246 364.364 241.944C362.942 248.642 362.118 255.34 361.891 262.038C362.871 268.735 364.422 275.433 366.544 282.131C369.667 288.824 373.178 295.52 377.075 302.218C381.615 312.777 381.715 320.332 377.375 324.884C372.704 325.356 367.924 325.777 363.037 326.147C357.907 326.55 352.651 327.028 347.268 327.581C341.617 328.414 335.829 329.443 329.904 330.67C323.705 332.385 317.377 334.384 310.92 336.667C304.2 339.573 297.364 342.8 290.412 346.35C283.233 350.546 275.96 355.05 268.592 359.863C261.05 365.234 253.437 370.838 245.753 376.676C239.791 376.415 233.716 376.225 227.528 376.106C221.129 375.983 214.627 375.79 208.023 375.53C201.224 375.004 194.335 374.288 187.356 373.382C180.231 371.991 173.036 370.323 165.774 368.379C158.406 365.835 150.995 362.98 143.543 359.815C136.038 356.026 128.517 351.946 120.981 347.572C113.444 342.677 105.915 337.557 98.3945 332.214C90.9211 326.522 83.4767 320.714 76.0612 314.79C74.418 308.183 72.8064 301.579 71.2264 294.978C69.836 288.371 68.5825 281.765 67.466 275.159C66.7076 268.552 66.152 261.946 65.7991 255.34C65.8781 248.734 66.173 242.127 66.6839 235.521C67.5845 228.919 68.651 222.315 69.8834 215.709C71.3581 209.103 72.9038 202.496 74.5207 195.89C76.1639 189.284 77.765 182.677 79.3239 176.071C80.688 169.469 81.9072 162.865 82.9816 156.259C90.218 154.768 97.4228 153.16 104.596 151.435C111.685 149.403 118.719 147.201 125.697 144.826C132.544 142.077 139.319 139.13 146.024 135.987C152.56 132.465 159.011 128.759 165.379 124.87C171.562 120.656 177.65 116.306 183.643 111.818C189.453 107.114 195.169 102.34 200.794 97.4955C206.24 92.582 211.607 87.6707 216.895 82.7617C224.542 75.5836 229.619 70.8233 232.126 68.4809" id="Shape" fill="none" stroke="url(#gradient_1)" stroke-width="2" stroke-linecap="round" stroke-dasharray="28 26" />
      <path d="M236.25 77.0453C243.934 78.7929 251.618 80.6207 259.302 82.5284C266.965 84.6512 274.599 86.9044 282.204 89.288C289.73 91.9644 297.198 94.8009 304.608 97.7975C311.881 101.128 319.07 104.623 326.175 108.283C333.09 112.264 339.898 116.388 346.597 120.656C353.064 125.177 359.411 129.797 365.636 134.519C371.603 139.373 377.436 144.263 383.134 149.191C388.564 154.118 393.862 159.006 399.029 163.856C395.906 170.147 392.469 176.437 388.72 182.728C384.58 189.018 380.375 195.309 376.103 201.6C371.958 207.89 368.011 214.181 364.261 220.472C361.133 226.762 358.413 233.05 356.1 239.337C354.747 245.627 353.917 251.918 353.612 258.208C354.37 264.499 355.634 270.79 357.404 277.08C360.085 283.371 363.137 289.662 366.56 295.952C370.594 305.752 370.576 312.667 366.505 316.698C357.641 317.548 348.501 318.548 339.084 319.696C334.007 320.698 328.814 321.892 323.505 323.279C317.964 325.132 312.305 327.245 306.528 329.62C300.524 332.548 294.407 335.762 288.176 339.261C281.735 343.324 275.194 347.654 268.553 352.252C261.738 357.335 254.841 362.621 247.863 368.111C241.89 367.819 235.823 367.592 229.661 367.432C223.309 367.281 216.873 367.08 210.353 366.828C203.675 366.366 196.929 365.748 190.114 364.975C183.177 363.809 176.194 362.409 169.163 360.775C162.063 358.63 154.937 356.212 147.785 353.522C140.602 350.287 133.418 346.783 126.234 343.008C119.061 338.74 111.909 334.249 104.778 329.537C97.6993 324.45 90.6551 319.218 83.6452 313.843C82.0283 307.561 80.4641 301.282 78.9526 295.005C77.6465 288.728 76.4799 282.449 75.4529 276.168C74.7735 269.891 74.289 263.612 73.9993 257.33C74.1204 251.053 74.4391 244.774 74.9552 238.492C75.84 232.216 76.8802 225.939 78.0757 219.662C79.5082 213.38 81.0171 207.101 82.6024 200.824C84.2351 194.543 85.844 188.264 87.4293 181.987C88.8618 175.71 90.1759 169.431 91.3714 163.149C98.2918 161.589 105.189 159.899 112.062 158.078C118.866 155.941 125.628 153.638 132.349 151.167C138.964 148.344 145.521 145.343 152.02 142.164C158.377 138.641 164.657 134.96 170.861 131.122C176.907 127.004 182.867 122.772 188.739 118.426C194.443 113.901 200.057 109.32 205.582 104.681C210.933 99.9912 216.202 95.311 221.39 90.6399C228.858 83.8094 233.811 79.2779 236.25 77.0453" id="Shape" fill="none" stroke="url(#gradient_1)" stroke-width="2" stroke-linecap="round" stroke-dasharray="9 6" />
      <path d="M240.12 85.6097C247.273 87.2155 254.406 88.8945 261.522 90.6467C268.574 92.5865 275.584 94.6407 282.551 96.8093C289.414 99.2432 296.211 101.821 302.941 104.543C309.519 107.563 316.011 110.733 322.415 114.055C328.635 117.674 334.755 121.43 340.774 125.323C346.583 129.468 352.279 133.718 357.862 138.073C363.218 142.598 368.459 147.175 373.583 151.805C378.486 156.49 383.276 161.168 387.953 165.839C384.783 171.723 381.383 177.606 377.754 183.49C373.862 189.373 369.944 195.256 365.999 201.14C362.228 207.023 358.644 212.907 355.247 218.79C352.414 224.674 349.941 230.557 347.829 236.441C346.555 242.324 345.73 248.207 345.356 254.091C345.915 259.974 346.921 265.858 348.374 271.741C350.644 277.625 353.259 283.508 356.219 289.392C355.782 300.513 351.55 307.321 343.524 309.814C339.284 310.437 334.968 311.175 330.576 312.031C326.004 313.193 321.343 314.543 316.592 316.08C311.642 318.047 306.594 320.248 301.448 322.682C296.103 325.61 290.657 328.787 285.111 332.214C279.376 336.13 273.543 340.275 267.612 344.648C261.514 349.439 255.331 354.407 249.063 359.554C243.122 359.238 237.097 358.98 230.988 358.778C224.731 358.604 218.406 358.394 212.012 358.147C205.503 357.735 198.943 357.2 192.333 356.541C185.639 355.567 178.914 354.398 172.157 353.034C165.358 351.241 158.548 349.217 151.727 346.961C144.902 344.23 138.084 341.258 131.274 338.047C124.496 334.382 117.742 330.503 111.011 326.408C104.343 321.938 97.7125 317.311 91.1186 312.525C89.5597 306.582 88.0692 300.639 86.6472 294.696C85.4359 288.749 84.3694 282.804 83.4477 276.861C82.8526 270.918 82.4418 264.975 82.2153 259.032C82.368 253.089 82.7051 247.144 83.2265 241.196C84.085 235.253 85.0935 229.31 86.2522 223.367C87.6373 217.425 89.0988 211.482 90.6367 205.539C92.243 199.591 93.8415 193.646 95.432 187.703C96.9119 181.76 98.2997 175.817 99.5953 169.874C106.179 168.209 112.749 166.409 119.306 164.474C125.815 162.232 132.291 159.83 138.732 157.268C145.099 154.39 151.417 151.35 157.684 148.148C163.835 144.652 169.926 141.02 175.957 137.25C181.85 133.247 187.67 129.15 193.416 124.959C199.004 120.627 204.513 116.248 209.943 111.824C215.209 107.368 220.397 102.924 225.505 98.4906C232.847 92.017 237.719 87.7233 240.12 85.6097" id="Shape" fill="none" stroke="url(#gradient_1)" stroke-width="2" stroke-linecap="round" stroke-dasharray="20 17" />
      <path d="M243.51 94.1672C250.077 95.6358 256.61 97.1707 263.109 98.772C269.524 100.538 275.884 102.407 282.188 104.379C288.376 106.575 294.496 108.899 300.548 111.351C306.441 114.068 312.255 116.923 317.991 119.915C323.547 123.173 329.011 126.563 334.383 130.086C339.571 133.851 344.659 137.721 349.646 141.697C354.439 145.851 359.137 150.076 363.74 154.372C368.153 158.759 372.477 163.167 376.711 167.596C373.573 173.072 370.273 178.551 366.813 184.032C363.189 189.508 359.576 194.986 355.974 200.467C352.561 205.944 349.327 211.422 346.273 216.903C343.718 222.379 341.48 227.858 339.558 233.339C338.362 238.82 337.554 244.298 337.132 249.774C337.512 255.255 338.281 260.734 339.439 266.21C341.33 271.691 343.534 277.169 346.052 282.646C345.262 293.008 341.119 299.441 333.625 301.943C325.693 303.865 317.569 306.239 309.253 309.066C304.835 311.121 300.337 313.383 295.76 315.853C291.015 318.754 286.185 321.87 281.272 325.2C276.189 328.952 271.025 332.9 265.78 337.045C260.366 341.542 254.872 346.19 249.3 350.989C243.433 350.655 237.5 350.374 231.502 350.145C225.392 349.944 219.233 349.72 213.023 349.473C206.73 349.102 200.405 348.638 194.048 348.08C187.638 347.261 181.213 346.286 174.772 345.156C168.315 343.674 161.858 342 155.401 340.133C148.96 337.855 142.534 335.37 136.125 332.68C129.763 329.583 123.427 326.287 117.117 322.791C110.876 318.939 104.672 314.925 98.5051 310.748C97.0304 305.143 95.6321 299.541 94.3102 293.941C93.2147 288.342 92.2588 282.742 91.4425 277.142C90.9369 271.542 90.5998 265.942 90.4313 260.343C90.6156 254.743 90.9685 249.141 91.4899 243.536C92.3273 237.937 93.299 232.337 94.405 226.737C95.7322 221.137 97.1384 215.537 98.6236 209.938C100.188 204.338 101.757 198.738 103.332 193.138C104.838 187.538 106.273 181.939 107.637 176.339C113.873 174.555 120.104 172.633 126.329 170.574C132.522 168.236 138.692 165.75 144.839 163.115C150.927 160.2 156.981 157.147 163.001 153.953C168.926 150.504 174.803 146.94 180.633 143.262C186.348 139.396 192.004 135.452 197.603 131.431C203.064 127.299 208.455 123.136 213.774 118.941C218.951 114.723 224.057 110.521 229.092 106.334C236.339 100.222 241.145 96.1665 243.51 94.1672" id="Shape" fill="none" stroke="url(#gradient_1)" stroke-width="2" stroke-linecap="round" stroke-dasharray="22 22" />
      <path d="M246.251 102.725C252.192 104.065 258.09 105.463 263.947 106.918C269.703 108.514 275.405 110.2 281.05 111.975C286.57 113.947 292.021 116.031 297.403 118.227C302.649 120.652 307.816 123.198 312.903 125.865C317.838 128.779 322.691 131.813 327.463 134.965C332.071 138.341 336.598 141.823 341.043 145.41C345.325 149.179 349.528 153.027 353.651 156.952C357.622 161.001 361.522 165.089 365.351 169.216C362.312 174.294 359.166 179.372 355.911 184.45C352.582 189.529 349.285 194.607 346.02 199.685C342.955 204.759 340.058 209.835 337.33 214.913C335.044 219.991 333.032 225.069 331.294 230.148C330.173 235.226 329.383 240.304 328.924 245.382C329.151 250.461 329.712 255.539 330.607 260.617C332.145 265.695 333.967 270.774 336.074 275.852C334.889 285.569 330.773 291.725 323.726 294.319C316.485 296.529 309.106 299.166 301.59 302.231C297.64 304.345 293.63 306.642 289.559 309.121C285.351 311.971 281.077 315.005 276.737 318.221C272.255 321.794 267.702 325.532 263.078 329.434C258.312 333.639 253.474 337.971 248.566 342.432C242.83 342.08 237.05 341.778 231.225 341.526C225.321 341.306 219.386 341.071 213.418 340.819C207.399 340.481 201.36 340.069 195.304 339.584C189.226 338.902 183.146 338.097 177.063 337.168C170.985 335.956 164.915 334.583 158.853 333.051C152.828 331.184 146.821 329.139 140.833 326.916C134.898 324.34 128.994 321.59 123.122 318.667C117.318 315.405 111.551 311.987 105.821 308.414C104.451 303.167 103.169 297.919 101.973 292.672C100.999 287.424 100.156 282.177 99.4452 276.929C99.0291 271.677 98.7684 266.427 98.6631 261.18C98.8738 255.932 99.2398 250.685 99.7612 245.437C100.562 240.19 101.491 234.942 102.55 229.695C103.809 224.447 105.146 219.2 106.563 213.952C108.075 208.705 109.599 203.455 111.137 198.203C112.638 192.955 114.092 187.708 115.498 182.46C121.376 180.552 127.251 178.514 133.123 176.346C138.979 173.925 144.823 171.375 150.653 168.694C156.446 165.761 162.213 162.714 167.954 159.553C173.626 156.181 179.262 152.716 184.86 149.156C190.374 145.442 195.838 141.667 201.253 137.833C206.561 133.917 211.812 129.978 217.005 126.016C222.072 122.05 227.078 118.099 232.023 114.165C239.17 108.418 243.913 104.605 246.251 102.725" id="Shape" fill="none" stroke="url(#gradient_1)" stroke-width="2" stroke-linecap="round" stroke-dasharray="28 12" />
      <path d="M248.178 111.289C253.482 112.502 258.738 113.762 263.947 115.07C269.05 116.507 274.098 118.019 279.091 119.606C283.968 121.363 288.782 123.216 293.532 125.165C298.157 127.311 302.712 129.564 307.199 131.925C311.555 134.5 315.842 137.181 320.061 139.968C324.142 142.964 328.155 146.059 332.1 149.253C335.919 152.629 339.674 156.083 343.366 159.615C346.942 163.289 350.46 167.015 353.92 170.794C351.034 175.474 348.085 180.157 345.072 184.841C342.044 189.522 339.065 194.204 336.137 198.889C333.414 203.569 330.841 208.252 328.419 212.936C326.386 217.617 324.587 222.299 323.023 226.984C321.98 231.664 321.217 236.347 320.732 241.032C320.827 245.716 321.209 250.399 321.878 255.079C323.094 259.764 324.566 264.446 326.294 269.127C324.703 278.29 320.579 284.245 313.922 286.99C307.276 289.46 300.54 292.326 293.714 295.588C290.175 297.734 286.588 300.035 282.954 302.492C279.225 305.269 275.441 308.197 271.602 311.276C267.657 314.657 263.655 318.175 259.594 321.831C255.423 325.738 251.188 329.752 246.891 333.874C241.361 333.513 235.802 333.195 230.214 332.92C224.579 332.682 218.927 332.438 213.26 332.186C207.567 331.875 201.871 331.509 196.173 331.088C190.469 330.516 184.773 329.848 179.085 329.084C173.418 328.101 167.767 326.989 162.132 325.749C156.538 324.239 150.969 322.581 145.423 320.774C139.935 318.669 134.479 316.416 129.054 314.014C123.698 311.31 118.376 308.465 113.089 305.477C111.846 300.591 110.695 295.705 109.636 290.819C108.788 285.928 108.064 281.04 107.464 276.154C107.137 271.263 106.95 266.375 106.903 261.489C107.14 256.603 107.516 251.714 108.033 246.824C108.796 241.937 109.678 237.051 110.679 232.165C111.864 227.275 113.125 222.386 114.463 217.5C115.901 212.614 117.362 207.728 118.848 202.842C120.328 197.951 121.776 193.063 123.193 188.177C128.691 186.15 134.192 184.009 139.696 181.753C145.199 179.274 150.698 176.682 156.191 173.978C161.658 171.068 167.109 168.063 172.544 164.961C177.937 161.69 183.301 158.345 188.636 154.928C193.908 151.387 199.146 147.802 204.349 144.174C209.469 140.487 214.543 136.786 219.573 133.071C224.502 129.356 229.379 125.659 234.203 121.981C241.219 116.61 245.877 113.046 248.178 111.289" id="Shape" fill="none" stroke="url(#gradient_1)" stroke-width="2" stroke-linecap="round" stroke-dasharray="2 9" />
      <path d="M249.19 119.847C253.856 120.936 258.475 122.068 263.046 123.244C267.523 124.529 271.95 125.874 276.326 127.279C284.695 130.632 292.898 134.24 300.935 138.101C304.758 140.352 308.527 142.694 312.24 145.128C315.847 147.754 319.4 150.467 322.897 153.267C326.294 156.241 329.643 159.295 332.945 162.428C336.379 169.543 336.832 177.167 334.304 185.301C331.592 189.597 328.938 193.893 326.341 198.189C323.939 202.48 321.672 206.774 319.539 211.07C317.748 215.361 316.153 219.655 314.752 223.951C313.788 228.242 313.059 232.536 312.563 236.832C312.548 241.123 312.774 245.417 313.243 249.713C314.175 254.004 315.328 258.298 316.703 262.594C314.718 271.259 310.57 277.055 304.261 279.983C298.141 282.678 291.968 285.725 285.743 289.124C279.27 293.809 272.692 298.887 266.009 304.359C262.538 307.534 259.023 310.821 255.462 314.22C251.812 317.83 248.118 321.526 244.379 325.31C239.122 324.948 233.851 324.624 228.563 324.335C223.265 324.079 217.958 323.825 212.644 323.574C207.33 323.276 202.021 322.942 196.718 322.572C191.435 322.091 186.163 321.54 180.902 320.918C175.678 320.122 170.471 319.23 165.284 318.242C160.144 317.034 155.03 315.709 149.942 314.268C144.912 312.585 139.914 310.775 134.948 308.84C130.045 306.648 125.176 304.334 120.341 301.895C119.24 297.375 118.231 292.855 117.315 288.335C116.599 283.819 115.996 279.301 115.506 274.781C115.264 270.261 115.148 265.741 115.158 261.221C115.416 256.701 115.796 252.181 116.296 247.661C117.023 243.141 117.855 238.621 118.792 234.1C119.898 229.58 121.078 225.06 122.332 220.54C123.68 216.025 125.062 211.507 126.479 206.987C127.906 202.467 129.32 197.947 130.721 193.426C135.83 191.308 140.944 189.089 146.063 186.77C151.193 184.267 156.323 181.671 161.452 178.981C166.566 176.126 171.675 173.193 176.778 170.183C181.855 167.04 186.914 163.842 191.954 160.589C196.952 157.245 201.927 153.866 206.877 150.453C211.765 147.008 216.621 143.554 221.445 140.091C226.195 136.637 230.906 133.203 235.578 129.79C242.409 124.799 246.946 121.485 249.19 119.847" id="Shape" fill="none" stroke="url(#gradient_1)" stroke-width="2" stroke-linecap="round" stroke-dasharray="13 23" />
      <path d="M249.229 128.411C257.25 130.429 265.098 132.625 272.771 134.999C280.087 137.849 287.223 140.983 294.18 144.401C300.779 148.445 307.215 152.81 313.488 157.494C319.46 162.797 325.304 168.369 331.018 174.211C326.099 182.035 321.301 189.858 316.624 197.681C312.674 205.504 309.296 213.325 306.488 221.144C305.103 228.967 304.505 236.791 304.695 244.614C306.438 252.432 308.866 260.253 311.979 268.077C306.212 269.536 300.492 271.284 294.82 273.32C289.169 276.078 283.491 279.249 277.788 282.831C271.979 287.278 266.085 292.155 260.107 297.462C253.914 303.556 247.594 309.984 241.147 316.746C231.325 316.087 221.503 315.497 211.68 314.975C201.927 314.367 192.231 313.603 182.593 312.683C173.107 311.26 163.722 309.508 154.437 307.426C145.368 304.576 136.42 301.314 127.593 297.64C125.876 289.35 124.538 281.063 123.58 272.778C123.474 264.488 123.804 256.198 124.567 247.908C126.116 239.618 127.98 231.328 130.16 223.038C132.736 214.748 135.38 206.458 138.092 198.168C147.519 193.653 156.97 188.831 166.445 183.702C175.936 178.048 185.4 172.194 194.838 166.141C204.181 159.837 213.45 153.484 222.646 147.084C231.631 140.752 240.492 134.528 249.229 128.411C249.229 128.411 249.229 128.411 249.229 128.411" id="Shape" fill="none" stroke="url(#gradient_1)" stroke-width="2" stroke-linecap="round" stroke-dasharray="22 3" />
      <path d="M248.305 136.975C255.183 138.755 261.919 140.679 268.513 142.747C274.823 145.208 280.992 147.901 287.023 150.824C292.785 154.26 298.428 157.968 303.953 161.948C309.261 166.464 314.486 171.231 319.626 176.25C315.26 183.323 311.049 190.393 306.994 197.462C303.597 204.535 300.671 211.607 298.217 218.68C296.922 225.753 296.263 232.824 296.242 239.892C297.485 246.965 299.313 254.036 301.725 261.104C296.316 262.806 290.962 264.78 285.664 267.027C280.429 269.914 275.197 273.143 269.967 276.717C264.705 280.999 259.402 285.624 254.056 290.593C248.584 296.192 243.033 302.057 237.403 308.188C228.402 307.534 219.438 306.944 210.511 306.417C201.684 305.85 192.926 305.18 184.236 304.407C175.714 303.277 167.285 301.904 158.948 300.289C150.822 298.098 142.8 295.582 134.885 292.741C133.478 285.21 132.409 277.68 131.677 270.149C131.693 262.619 132.08 255.088 132.838 247.558C134.266 240.027 135.972 232.497 137.958 224.966C140.328 217.436 142.787 209.906 145.336 202.375C153.926 197.864 162.553 193.115 171.217 188.129C179.923 182.758 188.626 177.242 197.326 171.583C205.985 165.759 214.603 159.915 223.183 154.049C231.636 148.262 240.01 142.571 248.305 136.975C248.305 136.975 248.305 136.975 248.305 136.975" id="Shape" fill="none" stroke="url(#gradient_1)" stroke-width="2" stroke-linecap="round" stroke-dasharray="25 4" />
      <path d="M246.448 145.533C252.289 147.084 258.019 148.754 263.639 150.543C269.048 152.638 274.354 154.916 279.557 157.378C284.571 160.251 289.503 163.346 294.354 166.663C299.068 170.428 303.726 174.413 308.329 178.617C304.537 184.949 300.911 191.283 297.451 197.619C294.565 203.956 292.063 210.292 289.946 216.629C288.75 222.96 288.058 229.294 287.868 235.631C288.69 241.967 289.993 248.304 291.779 254.64C286.733 256.552 281.748 258.707 276.824 261.104C271.989 264.042 267.175 267.26 262.383 270.76C257.606 274.818 252.818 279.146 248.02 283.744C243.165 288.831 238.267 294.124 233.326 299.624C225.253 298.983 217.229 298.402 209.255 297.88C201.403 297.345 193.624 296.748 185.919 296.089C178.371 295.193 170.911 294.129 163.538 292.898C156.344 291.242 149.242 289.346 142.232 287.209C141.131 280.443 140.328 273.679 139.822 266.917C139.938 260.15 140.365 253.386 141.102 246.624C142.408 239.858 143.954 233.094 145.739 226.332C147.872 219.57 150.111 212.806 152.454 206.04C160.191 201.634 167.967 197.054 175.783 192.301C183.662 187.273 191.554 182.151 199.459 176.936C207.364 171.624 215.257 166.308 223.135 160.987C230.951 155.754 238.722 150.602 246.448 145.533C246.448 145.533 246.448 145.533 246.448 145.533" id="Shape" fill="none" stroke="url(#gradient_1)" stroke-width="2" stroke-linecap="round" stroke-dasharray="27 28" />
      <path d="M243.778 154.091C248.692 155.426 253.524 156.856 258.275 158.38C262.883 160.132 267.42 162.028 271.886 164.069C276.231 166.425 280.526 168.955 284.771 171.659C288.932 174.724 293.061 177.97 297.159 181.396C293.946 187.01 290.894 192.621 288.002 198.23C285.585 203.844 283.478 209.455 281.682 215.064C280.592 220.677 279.889 226.289 279.573 231.898C280.047 237.511 280.903 243.125 282.141 248.738C277.49 250.806 272.898 253.08 268.363 255.559C263.918 258.474 259.507 261.605 255.13 264.954C250.796 268.738 246.472 272.725 242.159 276.916C237.84 281.472 233.506 286.189 229.155 291.066C222.072 290.453 215.043 289.888 208.07 289.371C201.224 288.872 194.445 288.339 187.736 287.772C181.163 287.054 174.669 286.226 168.254 285.288C161.982 284.062 155.788 282.669 149.673 281.109C148.868 275.111 148.309 269.115 147.999 263.122C148.204 257.129 148.662 251.135 149.373 245.142C150.548 239.149 151.922 233.156 153.497 227.162C155.382 221.169 157.376 215.176 159.477 209.183C166.34 204.978 173.244 200.657 180.191 196.219C187.201 191.603 194.237 186.93 201.3 182.199C208.389 177.423 215.483 172.658 222.582 167.905C233.19 160.964 240.255 156.36 243.778 154.091" id="Shape" fill="none" stroke="url(#gradient_1)" stroke-width="2" stroke-linecap="round" stroke-dasharray="3 15" />
      <path d="M240.429 162.655C248.466 165.144 256.363 167.893 264.121 170.904C271.526 175.081 278.87 179.665 286.154 184.656C283.505 189.556 280.998 194.456 278.633 199.356C276.658 204.251 274.917 209.148 273.411 214.048C272.442 218.948 271.757 223.848 271.357 228.748C269.83 237.17 266.14 244.383 260.289 250.385C256.255 253.19 252.255 256.159 248.289 259.293C244.381 262.747 240.494 266.35 236.629 270.101C232.789 274.118 228.953 278.254 225.118 282.509C219.062 281.932 213.058 281.394 207.106 280.896C201.266 280.429 195.483 279.947 189.758 279.448C184.154 278.871 178.614 278.226 173.136 277.513C164.889 273.45 159.253 267.221 156.23 258.826C156.499 253.606 156.97 248.384 157.644 243.159C158.682 237.939 159.88 232.717 161.239 227.492C162.872 222.272 164.599 217.049 166.421 211.825C172.404 207.927 178.422 203.956 184.473 199.911C190.598 195.767 196.749 191.592 202.927 187.387C209.147 183.174 215.38 178.976 221.627 174.795C231.028 168.696 237.295 164.65 240.429 162.655" id="Shape" fill="none" stroke="url(#gradient_1)" stroke-width="2" stroke-linecap="round" stroke-dasharray="5 18" />
      <path d="M236.597 171.213C243.265 173.248 249.856 175.47 256.371 177.876C262.717 181.106 269.04 184.629 275.339 188.444C273.227 192.64 271.233 196.835 269.358 201.03C267.778 205.225 266.372 209.421 265.14 213.616C264.292 217.811 263.649 222.006 263.212 226.202C261.522 233.563 257.998 240.016 252.642 245.561C249.04 248.178 245.469 250.911 241.93 253.762C238.454 256.836 235.001 260.013 231.573 263.294C223.983 268.312 215.62 271.366 206.482 272.455C201.637 272.02 196.836 271.586 192.081 271.151C182.895 270.076 173.85 268.85 164.944 267.473C164.644 263.021 164.499 258.568 164.51 254.111C164.826 249.66 165.292 245.209 165.908 240.757C166.803 236.301 167.825 231.847 168.973 227.396C170.337 222.94 171.788 218.486 173.326 214.035C178.414 210.535 183.535 206.996 188.691 203.418C193.906 199.795 199.146 196.16 204.412 192.514C209.727 188.881 215.059 185.267 220.41 181.671C228.5 176.419 233.895 172.933 236.597 171.213" id="Shape" fill="none" stroke="url(#gradient_1)" stroke-width="2" stroke-linecap="round" stroke-dasharray="4 14" />
      <path d="M232.481 179.777C237.948 181.351 243.37 183.089 248.747 184.992C254.077 187.33 259.407 189.929 264.737 192.788C261.693 199.783 259.073 206.776 256.876 213.767C255.712 220.762 255.12 227.757 255.099 234.752C248.652 238.971 242.322 243.504 236.107 248.354C230.098 253.784 224.165 259.46 218.309 265.38C210.33 264.492 202.485 263.66 194.774 262.882C187.327 262.063 180.009 261.146 172.82 260.13C172.836 252.755 173.289 245.378 174.179 237.998C175.865 230.619 177.876 223.239 180.215 215.86C188.663 209.794 197.208 203.702 205.85 197.585C214.656 191.542 223.533 185.605 232.481 179.777C232.481 179.777 232.481 179.777 232.481 179.777" id="Shape" fill="none" stroke="url(#gradient_1)" stroke-width="2" stroke-linecap="round" stroke-dasharray="24 14" />
      <path d="M228.318 188.334C232.668 189.538 237.008 190.842 241.337 192.246C246.746 197.699 249.169 205.122 248.605 214.515C247.61 220.119 246.97 225.724 246.685 231.328C241.324 235.043 236.047 238.95 230.854 243.049C225.808 247.491 220.829 252.082 215.915 256.822C209.821 256.058 203.815 255.34 197.895 254.667C189.468 250.71 184.32 244.149 182.45 234.986C183.778 229.121 185.334 223.255 187.119 217.39C193.787 212.454 200.523 207.527 207.328 202.608C217.798 195.435 224.794 190.677 228.318 188.334" id="Shape" fill="none" stroke="url(#gradient_1)" stroke-width="2" stroke-linecap="round" stroke-dasharray="19 1" />
      <path d="M224.336 196.899C233.553 202.041 238.885 208.348 240.334 215.819C239.544 220.037 238.946 224.255 238.54 228.473C234.375 231.493 230.256 234.611 226.185 237.827C218.09 242.699 209.863 245.595 201.505 246.515C195.496 243.541 191.899 238.646 190.714 231.829C191.694 227.46 192.813 223.091 194.071 218.722C198.985 215.002 203.944 211.299 208.947 207.611C216.621 202.231 221.75 198.66 224.336 196.899" id="Shape" fill="none" stroke="url(#gradient_1)" stroke-width="2" stroke-linecap="round" stroke-dasharray="23 19" />
      <path d="M220.75 205.456C226.785 210.086 230.085 216.972 230.648 226.113C224.945 230.5 219.325 235.029 213.79 239.7C206.137 235.596 201.908 229.018 201.102 219.964C210.883 212.671 217.432 207.835 220.75 205.456" id="Shape" fill="none" stroke="url(#gradient_1)" stroke-width="2" stroke-linecap="round" stroke-dasharray="12 22" />
    </g>
  </g>
</svg>