<?xml version="1.0" encoding="utf-8"?>
<svg width="40px" height="40px" viewBox="0 0 40 40" version="1.1" xmlns:xlink="http://www.w3.org/1999/xlink" xmlns="http://www.w3.org/2000/svg">
  <defs>
    <path d="M20 0L40 0L40 40L0 40L0 0L20 0Z" id="path_1" />
    <clipPath id="clip_1">
      <use xlink:href="#path_1" />
    </clipPath>
  </defs>
  <g id="Instagram" clip-path="url(#clip_1)">
    <path d="M20 0L40 0L40 40L0 40L0 0L20 0Z" id="Instagram" fill="none" stroke="none" />
    <path d="M13.3333 5C8.73167 5 5 8.73167 5 13.3333L5 26.6667C5 31.2683 8.73167 35 13.3333 35L26.6667 35C31.2683 35 35 31.2683 35 26.6667L35 13.3333C35 8.73167 31.2683 5 26.6667 5L13.3333 5L13.3333 5ZM30 8.33333C30.92 8.33333 31.6667 9.08 31.6667 10C31.6667 10.92 30.92 11.6667 30 11.6667C29.08 11.6667 28.3333 10.92 28.3333 10C28.3333 9.08 29.08 8.33333 30 8.33333L30 8.33333ZM20 11.6667C24.6017 11.6667 28.3333 15.3983 28.3333 20C28.3333 24.6017 24.6017 28.3333 20 28.3333C15.3983 28.3333 11.6667 24.6017 11.6667 20C11.6667 15.3983 15.3983 11.6667 20 11.6667L20 11.6667ZM20 15C17.2386 15 15 17.2386 15 20C15 22.7614 17.2386 25 20 25C22.7614 25 25 22.7614 25 20C25 17.2386 22.7614 15 20 15L20 15Z" id="Shape" fill="#FFFFFF" fill-rule="evenodd" stroke="none" />
  </g>
</svg>