<?xml version="1.0" encoding="utf-8"?>
<svg width="40px" height="40px" viewBox="0 0 40 40" version="1.1" xmlns:xlink="http://www.w3.org/1999/xlink" xmlns="http://www.w3.org/2000/svg">
  <defs>
    <path d="M40 0L40 0L40 40L0 40L0 0L40 0Z" id="path_1" />
    <clipPath id="clip_1">
      <use xlink:href="#path_1" />
    </clipPath>
  </defs>
  <g id="Linkedin" clip-path="url(#clip_1)">
    <path d="M40 0L40 0L40 40L0 40L0 0L40 0Z" id="Linkedin" fill="none" stroke="none" />
    <path d="M32 5.33337L7.99998 5.33337C6.52665 5.33337 5.33331 6.52671 5.33331 8.00004L5.33331 32C5.33331 33.4734 6.52665 34.6667 7.99998 34.6667L32 34.6667C33.4733 34.6667 34.6666 33.4734 34.6666 32L34.6666 8.00004C34.6666 6.52671 33.4733 5.33337 32 5.33337L32 5.33337ZM14.6053 29.3333L10.672 29.3333L10.672 16.6773L14.6053 16.6773L14.6053 29.3333L14.6053 29.3333ZM12.5986 14.868C11.3306 14.868 10.3053 13.84 10.3053 12.5747C10.3053 11.3093 11.332 10.2827 12.5986 10.2827C13.8626 10.2827 14.8906 11.3107 14.8906 12.5747C14.8906 13.84 13.8626 14.868 12.5986 14.868L12.5986 14.868ZM29.3387 29.3333L25.408 29.3333L25.408 23.1787C25.408 21.7107 25.3813 19.8227 23.364 19.8227C21.3173 19.8227 21.0027 21.4213 21.0027 23.072L21.0027 29.3333L17.072 29.3333L17.072 16.6773L20.8453 16.6773L20.8453 18.4067L20.8987 18.4067C21.424 17.412 22.7067 16.3627 24.62 16.3627C28.6027 16.3627 29.3387 18.984 29.3387 22.392L29.3387 29.3333L29.3387 29.3333Z" id="Shape" fill="#FFFFFF" fill-rule="evenodd" stroke="none" />
  </g>
</svg>