<?xml version="1.0" encoding="utf-8"?>
<svg width="40px" height="40px" viewBox="0 0 40 40" version="1.1" xmlns:xlink="http://www.w3.org/1999/xlink" xmlns="http://www.w3.org/2000/svg">
  <defs>
    <path d="M20 0L40 0L40 40L0 40L0 0L20 0Z" id="path_1" />
    <clipPath id="clip_1">
      <use xlink:href="#path_1" />
    </clipPath>
  </defs>
  <g id="Twitter" clip-path="url(#clip_1)">
    <path d="M20 0L40 0L40 40L0 40L0 0L20 0Z" id="Twitter" fill="none" stroke="none" />
    <path d="M37.3334 9.2493C36.0574 9.81597 34.6867 10.1973 33.248 10.3693C34.7174 9.4893 35.844 8.09597 36.3747 6.43463C35.0014 7.2493 33.4787 7.8413 31.8574 8.1613C30.56 6.77863 28.712 5.91463 26.6667 5.91463C22.7387 5.91463 19.5547 9.09997 19.5547 13.0266C19.5547 13.584 19.6187 14.128 19.7387 14.6466C13.828 14.3506 8.58803 11.5186 5.0787 7.21463C4.46803 8.2653 4.11737 9.48663 4.11737 10.792C4.11737 13.2586 5.37203 15.436 7.28003 16.7106C6.1147 16.6733 5.01737 16.3533 4.0587 15.8213C4.0587 15.852 4.0587 15.88 4.0587 15.9106C4.0587 19.3573 6.50937 22.232 9.76403 22.884C9.16803 23.0466 8.5387 23.1333 7.88937 23.1333C7.43203 23.1333 6.98537 23.088 6.55203 23.0066C7.45737 25.832 10.084 27.8893 13.196 27.9466C10.7627 29.8546 7.69603 30.992 4.3627 30.992C3.78936 30.992 3.2227 30.9586 2.66536 30.892C5.81336 32.9093 9.5507 34.0866 13.568 34.0866C26.6507 34.0866 33.8027 23.2493 33.8027 13.8506C33.8027 13.5426 33.796 13.236 33.7827 12.9306C35.1734 11.9266 36.38 10.6746 37.3334 9.2493L37.3334 9.2493Z" id="Shape" fill="#FFFFFF" stroke="none" />
  </g>
</svg>